<?xml version="1.0" encoding="UTF-8"?><svg id="Layer_2" xmlns="http://www.w3.org/2000/svg" viewBox="0 0 212.43 136.2"><defs><style>.cls-1{fill:#073429;stroke-width:0px;}</style></defs><g id="Layer_1-2"><path class="cls-1" d="m71.29,135.7c-10.76,0-22.41-2.38-31.96-6.54C16.03,119.02,1.54,98.13.56,73.26-.43,47.84,10.55,30.86,19.94,21.09,31.97,8.58,48.76.5,62.72.5c6.73,0,11.94,1.92,15.07,5.54,2.41,2.79,2.88,6.45,1.08,8.51-.73.84-1.87,1.32-3.14,1.32-.43,0-.87-.06-1.31-.17-.78-.2-1.89-.81-2.44-1.89-.46-.89-.46-1.91-.02-3.04.25-.65.62-1.08.92-1.43.26-.31.45-.53.5-.79.17-1.06-.77-2.21-2.45-2.99-2.65-1.24-5.95-1.9-9.52-1.9-13.8,0-32.85,9.63-42.04,30.76-10.55,24.23-11.68,47.99-3.18,66.9,6.17,13.73,17.24,23.8,31.17,28.36,6.27,2.05,12.8,3.09,19.41,3.09,15.05,0,26.43-5.35,30.63-7.64,6.83-3.74,14.83-12.54,21.39-23.53,3.24-5.42,6.28-11.92,7.61-14.89-.78.48-1.66.92-2.66,1.34-.97.41-2.28.64-3.6.64-3.88,0-8.15-1.99-8.49-7.58-.35-5.78,2.33-11.02,4.48-15.24l.59-1.16,6.96-11.96.11-.21c1.33-2.5,2.58-4.86,3.23-7.65l.07-.31c.32-1.34.68-2.87-.01-3.9-.76-1.14-1.65-1.74-2.57-1.74-.68,0-1.15.33-1.27.43-.8.64-.99,1.27-.91,1.62.04.19.16.3.34.35.7.16,1.21.49,1.51.99.41.69.29,1.46.17,1.86-.36,1.3-1.37,2.07-2.69,2.07-1.72,0-3.7-1.33-3.9-3.3-.2-1.94,1.02-4.57,4.18-5.79.84-.32,1.7-.49,2.55-.49,1.93,0,3.66.83,4.86,2.33,1.61,2,2.09,4.97,1.35,8.35-1.34,4.73-4,9.84-6.58,14.78-2.65,5.08-5.16,9.88-6.08,13.93-.99,4.31-.84,7.03.43,8.09.46.38,1.71.79,3.39.79s3.17-.39,4.38-1.1c1.85-.85,2.72-3.02,3.49-4.94.19-.48.37-.94.56-1.36l12.12-26.71c2.53-5.56,5.16-10.91,9.56-15.26,1.99-1.97,3.97-3.26,6.04-3.94.83-.27,2.55-.84,4.38-.84,1.55,0,2.8.41,3.74,1.22.9.79,1.37,1.98,1.29,3.27-.08,1.18-.62,2.21-1.44,2.76-.65.43-1.38.65-2.12.65-1.79,0-3.42-1.31-3.63-2.92-.1-.75-.42-1.66-1.35-1.68-2.46,0-5.38,6.18-6.79,9.15l-.27.56c-1.71,3.59-4.47,9.83-7.66,17.06-6.63,15.03-14.88,33.74-19.72,42.15-.06.11-7,13.39-17.87,21.69-9.58,7.31-21.45,11.02-35.28,11.02Z"/><path class="cls-1" d="m62.72,1c6.33,0,11.58,1.77,14.69,5.37,2.34,2.7,2.63,6.08,1.08,7.86-.58.67-1.57,1.15-2.76,1.15-.38,0-.77-.05-1.19-.15-.99-.25-3.2-1.51-2.12-4.26.45-1.15,1.32-1.52,1.44-2.32.22-1.34-.92-2.68-2.73-3.53-2.76-1.29-6.09-1.95-9.73-1.95-14.23,0-33.32,9.96-42.5,31.06C-.88,79.7,14.33,119.41,47.19,130.16c6.79,2.22,13.39,3.11,19.56,3.11,12.89,0,23.9-3.89,30.87-7.71,7.84-4.29,15.85-14.11,21.58-23.71,4.38-7.33,8.38-16.58,8.35-16.59,0,0,0,0,0,0-.05,0-1.1,1.1-4.02,2.32-.85.36-2.08.6-3.41.6-3.46,0-7.66-1.63-7.99-7.11-.37-6.19,2.89-11.92,5.02-16.14l6.95-11.94c1.4-2.64,2.72-5.06,3.4-8,.34-1.46.87-3.29-.01-4.6-1-1.49-2.08-1.96-2.98-1.96-.67,0-1.23.26-1.59.54-1.52,1.21-1.33,2.63-.37,2.85,1.66.38,1.44,1.76,1.31,2.23-.33,1.2-1.23,1.7-2.21,1.7-1.51,0-3.23-1.19-3.4-2.86-.17-1.63.85-4.11,3.87-5.27.79-.3,1.59-.45,2.37-.45,3.87,0,7.12,3.69,5.72,10.07-2.67,9.43-10.81,20.59-12.67,28.7-1.24,5.42-.55,7.63.6,8.58.61.51,2.05.91,3.71.91,1.5,0,3.19-.32,4.63-1.17,2.46-1.12,3.27-4.34,4.25-6.53l12.12-26.71c2.48-5.45,5.1-10.8,9.46-15.11,1.71-1.7,3.64-3.1,5.85-3.82.62-.2,2.39-.82,4.23-.82,1.21,0,2.45.27,3.41,1.1,1.66,1.44,1.37,4.26-.1,5.23-.6.4-1.24.57-1.85.57-1.57,0-2.96-1.13-3.14-2.49-.22-1.67-1.12-2.09-1.84-2.11-.01,0-.02,0-.04,0-2.91,0-5.97,6.83-7.48,9.99-5.23,10.97-20.18,46.7-27.36,59.18,0,0-6.83,13.21-17.74,21.54-10.57,8.07-23.1,10.92-34.97,10.92s-23.79-3.03-31.77-6.5C20.28,120.33,2.19,102.02,1.06,73.24-.78,26.32,38.75,1,62.72,1m0-1c-14.09,0-31.02,8.14-43.14,20.74C10.12,30.58-.94,47.68.06,73.28c.53,13.61,4.79,25.71,12.64,35.95,6.69,8.73,15.82,15.77,26.41,20.38,9.62,4.18,21.34,6.58,32.17,6.58,13.94,0,25.91-3.74,35.58-11.12,10.94-8.35,17.74-21.33,18.02-21.88,4.83-8.4,13.09-27.12,19.72-42.17,3.19-7.23,5.94-13.47,7.65-17.05l.27-.57c1.15-2.42,4.19-8.86,6.31-8.86.19,0,.72.01.88,1.24.25,1.88,2.07,3.36,4.13,3.36.84,0,1.67-.25,2.4-.73.96-.63,1.58-1.81,1.67-3.14.1-1.45-.44-2.79-1.46-3.68-1.03-.89-2.4-1.35-4.07-1.35-1.92,0-3.69.59-4.45.84l-.09.03c-2.15.7-4.19,2.03-6.24,4.06-4.45,4.41-7.11,9.8-9.66,15.41l-12.12,26.71c-.19.43-.38.9-.58,1.39-.73,1.83-1.56,3.91-3.18,4.65-.03.01-.06.03-.09.05-1.13.67-2.6,1.03-4.13,1.03-1.65,0-2.76-.41-3.07-.68-.77-.64-1.43-2.47-.26-7.59.91-3.98,3.4-8.75,6.04-13.81,2.59-4.96,5.27-10.09,6.61-14.85,0-.02.01-.04.01-.06.77-3.53.26-6.64-1.45-8.77-1.3-1.62-3.17-2.51-5.25-2.51-.91,0-1.83.17-2.73.52-3.41,1.31-4.72,4.19-4.5,6.31.23,2.25,2.46,3.75,4.4,3.75,1.56,0,2.75-.91,3.17-2.44.13-.48.28-1.4-.23-2.25-.25-.42-.77-.98-1.8-1.22-.02-.15.11-.6.74-1.1.19-.15.55-.32.96-.32.74,0,1.48.52,2.15,1.51.58.86.24,2.27-.06,3.51l-.07.31c-.63,2.73-1.87,5.06-3.19,7.53l-.12.23-6.93,11.9s-.02.04-.03.05c-.19.37-.38.76-.59,1.15-2.07,4.04-4.89,9.58-4.54,15.5.36,5.94,4.88,8.05,8.99,8.05,1.39,0,2.77-.25,3.8-.68.49-.2.95-.41,1.38-.63-1.53,3.32-4.18,8.82-6.96,13.47-6.52,10.92-14.45,19.64-21.2,23.34-4.16,2.28-15.45,7.58-30.39,7.58-6.56,0-13.04-1.03-19.25-3.06-13.8-4.51-24.76-14.49-30.87-28.09-8.43-18.78-7.3-42.39,3.19-66.5C28.93,13.69,47.76,4.16,61.41,4.16c3.5,0,6.72.64,9.31,1.85,1.43.67,2.3,1.66,2.17,2.46-.02.12-.19.32-.38.54-.31.35-.72.84-1.01,1.57-.62,1.58-.32,2.75.05,3.45.63,1.23,1.88,1.92,2.76,2.15.48.12.96.18,1.43.18,1.41,0,2.69-.54,3.52-1.49,1.96-2.25,1.49-6.19-1.08-9.17-3.23-3.74-8.58-5.71-15.45-5.71h0Z"/><path class="cls-1" d="m163.82,132.4c-.8,0-1.6-.04-2.38-.1-7.49-.66-13.75-3.38-18.08-7.88-3.68-3.81-5.78-8.77-5.77-13.61.03-11.25,8.99-21.5,18.79-21.5,3.29,0,6.43,1.2,9.08,3.47,2.86,2.45,3.03,6.14,1.71,8.52-1.13,2.05-2.58,2.48-3.59,2.48-2.29,0-4.3-2.13-4.5-3.96-.15-1.39.43-2.13.94-2.79.58-.73,1.07-1.37.55-3.08-.61-2.01-2.59-2.31-3.71-2.31-4.91,0-13.77,5.78-13.96,17.29-.15,9.14,8.1,20.6,18.57,21.12.45.02.9.03,1.35.03h0c7.54,0,14.41-3.07,20.43-9.13,11.75-11.83,18.66-33.87,18.49-58.97-.24-34.66-24.64-52.11-48.73-54.03-1.67-.13-3.33-.2-4.95-.2-26.77,0-41.19,17.51-50.75,32.77-10.78,17.2-15.7,44.81-17.32,53.88-.17.98-.81,2.18-2.87,2.33-.05,0-.11,0-.16,0-.9,0-1.53-.49-1.56-1.23-.83-20.02-2-26.92-5.14-35.75-1.56,8.56-5.32,27.17-14.66,43.77-.12.21-.2.44-.29.69-.31.83-.69,1.87-2.47,2.55-.37.14-.69.21-.99.21-.42,0-.78-.15-1.03-.43-.54-.61-.51-1.68-.39-2.75,3.39-30.46-.5-41.99-4.36-46.3-1.68-1.88-3.72-2.84-6.06-2.84-3.67,0-7.05,2.37-7.84,3.36-1.31,1.64-1.75,3.44-1.49,4.36.09.33.26.54.51.64,2.98,1.12,3.94,2.72,4.21,3.87.31,1.28-.06,2.66-.99,3.69-.77.85-1.89,1.36-2.98,1.36-.86,0-2.96-.35-3.94-3.54-1.11-3.62-.44-7.34,1.88-10.48,2.59-3.5,6.9-5.67,11.26-5.67,2.06,0,4.06.47,5.94,1.38,10.67,5.21,10.76,24.06,10.79,31.15,0,.35,0,.7,0,1.02,7.29-12.49,10.51-30.73,10.81-32.47-.53-1.38-4.47-12.12.09-15.02.31-.2.68-.3,1.07-.3.81,0,1.6.44,2.23,1.24,1.04,1.32,2.49,4.77.52,12.99.06.16.19.46.37.88,1.23,2.9,4.79,11.26,6.26,19.09C89.82,28.99,115.4,5.19,150.75,5.19c.86,0,1.74.01,2.62.04,26.2.83,51.75,22.04,56.97,47.26,4.56,22.06-.86,45.22-14.49,61.95-9.29,11.41-20.97,17.96-32.04,17.96ZM69.68,41.7s-.08.01-.12.03c-.06.06-.42.53.01,3.63.09.68.24,1.35.39,1.92.22-1.06.39-2.21.41-3.09.03-1.01-.22-2.07-.55-2.42-.08-.08-.12-.08-.14-.08Z"/><path class="cls-1" d="m150.75,5.69c.86,0,1.73.01,2.61.04,25.83.82,51.36,22,56.49,46.86,8.73,42.25-20.09,79.31-46.03,79.31-.78,0-1.56-.03-2.34-.1-16.17-1.42-23.42-12.18-23.39-20.99.03-11.55,9.13-21,18.29-21,3.02,0,6.05,1.03,8.76,3.35,2.68,2.29,2.81,5.72,1.6,7.9-.89,1.61-2.04,2.22-3.15,2.22-1.96,0-3.82-1.89-4-3.51-.29-2.68,2.54-2.44,1.48-5.96-.54-1.8-2.14-2.66-4.19-2.66-5.51,0-14.27,6.3-14.46,17.78-.19,11.35,9.98,21.18,19.04,21.62.46.02.92.03,1.38.03,23.67,0,39.68-30.38,39.42-68.6-.18-26.72-16.91-51.95-49.19-54.53-1.71-.14-3.37-.2-4.99-.2-28.82,0-43.52,20.81-51.17,33.01-10.05,16.04-14.99,40.62-17.39,54.06-.29,1.65-1.72,1.87-2.41,1.92-.04,0-.08,0-.13,0-.44,0-1.04-.17-1.06-.75-.87-20.95-2.11-27.71-5.8-37.64-1.26,7.07-4.89,27.6-14.93,45.43-.56.99-.42,2.23-2.51,3.02-.32.12-.59.18-.81.18-1.06,0-1.07-1.28-.92-2.63,4.59-41.28-3.79-49.7-10.92-49.7-3.88,0-7.4,2.5-8.23,3.55-1.88,2.35-2.23,5.22-.77,5.77,4.92,1.85,4.46,5.17,3.03,6.76-.66.73-1.63,1.2-2.61,1.2-1.36,0-2.76-.89-3.46-3.19-2.46-8.07,4.64-15.5,12.66-15.5,1.89,0,3.84.41,5.72,1.33,12.8,6.25,9.97,33.25,10.65,33.25.02,0,.04-.02.06-.05,8.3-13.27,11.63-34,11.63-34,0,0-4.64-11.7-.16-14.54.23-.15.51-.23.8-.23,1.93,0,4.75,3.38,2.24,13.74-.12.03,5.57,11.97,6.99,22.04,0,.06.02.09.04.09.79,0,11.5-68.72,72.16-68.71m-80.71,43.39c.37-1.3.8-3.42.83-4.86.03-1.2-.31-3.01-1.19-3.01-.1,0-.21.02-.33.08-.75.34-.46,2.8-.28,4.16.25,1.83.87,3.55.97,3.64M150.75,4.69c-35.04,0-60.54,23.18-71.97,65.36-1.66-7.23-4.73-14.45-5.86-17.11-.12-.28-.23-.55-.31-.73,1.96-8.31.44-11.87-.65-13.25-.73-.92-1.66-1.43-2.63-1.43-.48,0-.94.13-1.34.38-4.78,3.03-1.14,13.37-.34,15.49-.39,2.26-3.35,18.49-9.8,30.52-.05-7.75-.54-25.58-11.07-30.72-1.95-.95-4.02-1.43-6.16-1.43-4.51,0-8.98,2.25-11.66,5.87-2.42,3.26-3.11,7.14-1.96,10.92.74,2.44,2.4,3.9,4.42,3.9,1.23,0,2.49-.57,3.35-1.53,1.04-1.15,1.45-2.7,1.11-4.14-.31-1.26-1.34-3.02-4.52-4.22-.04-.01-.14-.05-.21-.3-.21-.78.2-2.41,1.4-3.91.72-.9,4-3.18,7.45-3.18,2.19,0,4.1.9,5.69,2.67,3.79,4.24,7.6,15.64,4.24,45.91-.13,1.19-.16,2.39.51,3.14.24.27.69.6,1.4.6.35,0,.73-.08,1.16-.24,2-.76,2.44-1.97,2.76-2.85.09-.24.16-.45.26-.62,8.75-15.55,12.62-32.83,14.37-42.06,2.66,7.99,3.72,15.23,4.49,33.81.04,1,.89,1.7,2.06,1.7.07,0,.14,0,.2,0,2.5-.19,3.15-1.8,3.32-2.74,1.61-9.05,6.52-36.59,17.25-53.7,3.94-6.29,9.49-14.35,17.43-20.84,9.51-7.77,20.57-11.7,32.89-11.7,1.61,0,3.26.07,4.91.2,23.86,1.91,48.03,19.2,48.27,53.54.17,24.96-6.69,46.88-18.35,58.61-5.92,5.96-12.67,8.98-20.07,8.98-.44,0-.89-.01-1.33-.03-8.34-.41-18.27-9.7-18.09-20.61.18-11.19,8.73-16.8,13.46-16.8,1.2,0,2.74.34,3.23,1.95.44,1.46.08,1.93-.47,2.63-.51.66-1.22,1.56-1.04,3.15.22,2.04,2.45,4.4,4.99,4.4.94,0,2.71-.36,4.03-2.74,1.41-2.56,1.24-6.52-1.83-9.15-2.74-2.35-5.99-3.59-9.41-3.59-10.07,0-19.26,10.49-19.29,22-.01,4.97,2.14,10.06,5.91,13.96,4.42,4.58,10.78,7.36,18.4,8.03.8.07,1.62.11,2.43.11,11.21,0,23.03-6.61,32.42-18.14,13.72-16.85,19.18-40.17,14.59-62.37-2.53-12.25-9.93-23.97-20.83-33.01-10.9-9.04-23.9-14.24-36.61-14.65-.88-.03-1.77-.04-2.64-.04h0Z"/></g></svg>