<?xml version="1.0" encoding="UTF-8"?>
<svg id="Layer_1" data-name="Layer 1" xmlns="http://www.w3.org/2000/svg" viewBox="0 0 698 582.5">
  <defs>
    <style>
      .cls-1 {
        fill: #073429;
        stroke-width: 0px;
      }
    </style>
  </defs>
  <g id="waves">
    <path class="cls-1" d="M689,587.5c-22.6,0-37.96-12.9-51.5-24.28-11.32-9.51-21.09-17.72-33.5-17.72s-22.18,8.21-33.5,17.72c-13.55,11.38-28.91,24.28-51.5,24.28s-37.96-12.9-51.5-24.28c-11.32-9.51-21.09-17.72-33.5-17.72s-22.18,8.21-33.5,17.72c-13.55,11.38-28.91,24.28-51.5,24.28s-37.96-12.9-51.5-24.28c-11.32-9.51-21.09-17.72-33.5-17.72s-22.18,8.21-33.5,17.72c-13.55,11.38-28.91,24.28-51.5,24.28-.56,0-1.11-.03-1.67-.1-34.4-4.13-54.12-22.73-68.53-36.31-4.24-4-11.11-10.48-14.13-11.46-14.84,3.22-30.03,15.16-43.49,25.75-15.09,11.87-28.13,22.12-42.19,22.12-7.73,0-14-6.27-14-14s6.27-14,14-14c4.37,0,16.71-9.71,24.88-16.13,15.77-12.4,35.39-27.83,57.76-31.67.78-.13,1.57-.2,2.37-.2,13.63,0,23.53,9.33,34.01,19.22,12.7,11.98,27.08,25.53,51.77,28.77,12.03-.34,21.63-8.4,32.71-17.71,13.55-11.38,28.91-24.28,51.5-24.28s37.96,12.9,51.5,24.28c11.32,9.51,21.09,17.72,33.5,17.72s22.18-8.21,33.5-17.72c13.55-11.38,28.91-24.28,51.5-24.28s37.96,12.9,51.5,24.28c11.32,9.51,21.09,17.72,33.5,17.72s22.18-8.21,33.5-17.72c13.55-11.38,28.91-24.28,51.5-24.28s37.96,12.9,51.5,24.28c11.32,9.51,21.09,17.72,33.5,17.72,7.73,0,14,6.27,14,14s-6.27,14-14,14Z"/>
  </g>
  <g id="hull">
    <path class="cls-1" d="M478.21,568.3c-5.28,0-10.34-3-12.71-8.11-3.26-7.01-.21-15.34,6.8-18.59,51.89-24.1,94.73-48.81,129.76-74.94l-525.18,33.83,12.93,24.73c3.58,6.85.93,15.31-5.92,18.89-6.85,3.58-15.31.93-18.89-5.92l-22.9-43.8c-2.19-4.2-2.12-9.22.2-13.35s6.58-6.8,11.3-7.11l590-38c5.92-.39,11.47,3.03,13.79,8.5s.93,11.82-3.47,15.82c-42.15,38.34-97.7,73.25-169.82,106.74-1.91.89-3.91,1.3-5.89,1.3Z"/>
  </g>
  <g id="front_sail" data-name="front sail">
    <path class="cls-1" d="M578,432.3c-1.72,0-3.46-.32-5.12-.97-2.57-1.01-5.07-2.02-7.53-3.01-21.87-8.83-37.67-15.21-66.48-7.85-7.4,1.89-14.94-2.49-16.96-9.85-18.84-68.52-44.02-129.39-74.85-180.91-34.83-58.2-77.09-104.72-125.61-138.29-5.68-3.93-7.64-11.4-4.64-17.62,3.01-6.21,10.1-9.31,16.69-7.29,52.37,16.01,114.49,61.6,170.43,125.07,59.33,67.31,104.6,146.4,127.48,222.7,1.54,5.13.01,10.7-3.93,14.32-2.63,2.42-6.03,3.7-9.48,3.7ZM522.37,389.22c12.33,0,22.93,2.23,32.94,5.43-23.63-63.77-62.86-128.37-112.39-184.56-16.2-18.38-32.86-35.14-49.55-49.95,13.36,17.12,25.94,35.53,37.7,55.18,30.22,50.49,55.17,109.4,74.26,175.25,6.06-.93,11.71-1.35,17.03-1.35Z"/>
  </g>
  <g id="rear_sail" data-name="rear sail">
    <path class="cls-1" d="M100.31,455.6c-3.88,0-7.71-1.61-10.45-4.68-4.52-5.06-4.75-12.64-.56-17.98,51.55-65.52,74.13-140.73,67.1-223.52-6.78-79.94-39.49-149.22-65.73-193.25-3.1-5.21-2.5-11.82,1.49-16.39,3.99-4.56,10.47-6.04,16.04-3.65,72.75,31.11,149.15,87.1,209.63,153.62,73.99,81.38,121.06,174.42,136.09,269.06.79,4.98-1.16,10.01-5.1,13.15-3.95,3.14-9.28,3.92-13.96,2.03-118.61-47.83-228.7-41.26-327.21,19.53-2.28,1.41-4.82,2.09-7.35,2.09ZM135.84,40.65c21.93,44.41,43,102.03,48.46,166.4,6.03,71.07-7.99,137.01-41.7,196.67,32.24-13.95,65.66-22.98,99.85-26.95,57.34-6.65,117.53.87,179.26,22.36-17.86-80.94-60.61-160.18-124.59-230.56-47.17-51.88-104.29-96.99-161.27-127.93Z"/>
  </g>
</svg>