<?xml version="1.0" encoding="UTF-8"?><svg id="Layer_2" xmlns="http://www.w3.org/2000/svg" viewBox="0 0 210.45 134.2"><defs><style>.cls-1{fill:#073429;stroke-width:0px;}</style></defs><g id="Layer_1-2"><path class="cls-1" d="m117.25,41.9c-.17-1.63.85-4.11,3.87-5.27,4.75-1.83,9.77,1.96,8.09,9.61-2.67,9.43-10.81,20.59-12.67,28.7-1.24,5.42-.55,7.63.6,8.58s5.3,1.52,8.35-.26c2.46-1.12,3.27-4.34,4.25-6.53l12.12-26.71c2.48-5.45,5.1-10.8,9.46-15.11,1.71-1.7,3.64-3.1,5.85-3.82,1.03-.34,5.23-1.81,7.64.28,1.66,1.44,1.37,4.26-.1,5.23-2.15,1.41-4.73-.03-4.99-1.92-.22-1.67-1.12-2.09-1.84-2.11-2.92-.06-6,6.82-7.52,9.99-5.23,10.97-20.18,46.7-27.36,59.18,0,0-6.83,13.21-17.74,21.54-21.47,16.39-51.03,11.25-66.74,4.42C19.28,119.33,1.19,101.02.06,72.24-2.27,12.92,61.51-11.87,76.41,5.37c2.34,2.7,2.63,6.08,1.08,7.86-.77.88-2.24,1.43-3.95.99-.99-.25-3.2-1.51-2.12-4.26.45-1.15,1.32-1.52,1.44-2.32.22-1.34-.92-2.68-2.73-3.53-13.52-6.32-40.7,2.61-52.24,29.12-19.79,45.47-4.58,85.19,28.29,95.93,20.97,6.86,40.14,1.05,50.43-4.59,7.84-4.29,15.85-14.11,21.58-23.71,4.38-7.33,8.38-16.58,8.35-16.59-.02-.03-1.05,1.08-4.02,2.32-3.06,1.28-10.94,1.08-11.4-6.51-.37-6.19,2.89-11.92,5.02-16.14l6.95-11.94c1.4-2.64,2.72-5.06,3.4-8,.34-1.46.87-3.29-.01-4.6-1.75-2.61-3.74-2.07-4.56-1.42-1.52,1.21-1.33,2.63-.37,2.85,1.66.38,1.44,1.76,1.31,2.23-.85,3.06-5.33,1.59-5.61-1.15Z"/><path class="cls-1" d="m78.51,93.32c2.4-13.44,7.34-38.02,17.39-54.06,8.08-12.89,24.03-35.37,56.16-32.81s49.01,27.81,49.19,54.53c.27,38.96-16.37,69.77-40.8,68.56-9.06-.45-19.23-10.28-19.04-21.62.26-15.75,16.64-21.74,18.65-15.12,1.06,3.51-1.77,3.27-1.48,5.96.28,2.54,4.69,5.75,7.15,1.29,1.21-2.18,1.08-5.61-1.6-7.9-10.93-9.35-27.01,2.3-27.05,17.66-.02,8.81,7.23,19.57,23.39,20.99,26.51,2.33,57.37-35.68,48.37-79.21-5.14-24.86-30.66-46.04-56.49-46.86-64.28-2.04-74.4,71.67-74.8,68.58-1.41-10.07-7.11-22.01-6.99-22.04,2.9-11.96-1.31-14.62-3.04-13.52-4.48,2.84.16,14.54.16,14.54,0,0-3.33,20.73-11.63,34-.9,1.43,2.41-26.8-10.71-33.2-9.85-4.81-21.42,4.2-18.38,14.17,1.21,3.97,4.49,3.73,6.07,1.99,1.43-1.58,1.89-4.9-3.03-6.76-1.47-.55-1.11-3.42.77-5.77,2.38-2.98,26.25-17.61,19.16,46.14-.18,1.64-.13,3.16,1.73,2.45,2.09-.8,1.96-2.04,2.51-3.02,10.04-17.84,13.67-38.36,14.93-45.43,3.69,9.93,4.93,16.69,5.8,37.64.03.63.74.78,1.19.74.69-.05,2.12-.27,2.41-1.92Zm-9.47-45.24c-.09-.09-.72-1.81-.97-3.64-.19-1.36-.47-3.82.28-4.16,1.12-.51,1.55,1.59,1.52,2.93-.03,1.45-.46,3.56-.83,4.86Z"/></g></svg>